<svg width="32" height="33" viewBox="0 0 32 33" fill="none" xmlns="http://www.w3.org/2000/svg">
<path d="M15.92 10.9142L15.0445 14.4194C16.0352 14.6659 19.0923 15.6743 19.5869 13.6896C20.1023 11.6232 16.9091 11.1623 15.92 10.9142ZM14.6043 16.1897L13.6392 20.055C14.8284 20.3511 18.5001 21.5292 19.0427 19.3492C19.6109 17.0732 15.7951 16.4858 14.6043 16.1897Z" fill="#190219"/>
<path d="M19.8702 0.478477C11.2959 -1.65828 2.61605 3.55957 0.47929 12.1338C-1.65907 20.7049 3.55878 29.3879 12.1266 31.5263C20.7009 33.6631 29.3856 28.4468 31.5207 19.8726C33.6591 11.2999 28.4412 2.61684 19.8702 0.478477ZM23.0569 13.7232C22.8248 15.2821 21.9589 16.036 20.8129 16.3017C22.3895 17.1212 23.1898 18.3792 22.4279 20.5608C21.4804 23.2674 19.23 23.4963 16.2337 22.9297L15.507 25.8427L13.7528 25.4057L14.4683 22.5343C14.0002 22.4174 13.5334 22.2958 13.0678 22.1694L12.3491 25.0568L10.5965 24.6167L11.3231 21.6988C10.9118 21.5932 10.4957 21.4811 10.0715 21.3755L7.78429 20.8073L8.6582 18.797C8.6582 18.797 9.95146 19.1411 9.93385 19.1155C10.4316 19.2387 10.6509 18.9154 10.7373 18.6978L11.8881 14.0961L12.0722 14.1425C12.0128 14.1186 11.9519 14.0988 11.8897 14.0833L12.7092 10.7973C12.73 10.4228 12.6036 9.95224 11.8913 9.77458C11.9202 9.75697 10.6157 9.45767 10.6157 9.45767L11.0815 7.5818L13.5047 8.18682L13.5031 8.19482C13.8664 8.28605 14.241 8.37248 14.6235 8.45891L15.3422 5.57469L17.098 6.01164L16.3937 8.83825C16.8643 8.94549 17.3397 9.05432 17.8006 9.16957L18.5017 6.36057L20.2575 6.79752L19.5389 9.68175C21.7541 10.4484 23.3738 11.5944 23.0569 13.7232Z" fill="#190219"/>
</svg>
