<svg width="23" height="19" viewBox="0 0 23 19" fill="none" xmlns="http://www.w3.org/2000/svg">
<path d="M21.2515 0.235123H1.1185C0.821855 0.235123 0.53736 0.352965 0.327601 0.562724C0.117842 0.772483 0 1.05698 0 1.35362V17.0126C0 17.3093 0.117842 17.5938 0.327601 17.8035C0.53736 18.0133 0.821855 18.1311 1.1185 18.1311H21.2515C21.5481 18.1311 21.8326 18.0133 22.0424 17.8035C22.2522 17.5938 22.37 17.3093 22.37 17.0126V1.35362C22.37 1.05698 22.2522 0.772483 22.0424 0.562724C21.8326 0.352965 21.5481 0.235123 21.2515 0.235123ZM20.133 12.5386C19.2431 12.5386 18.3896 12.8921 17.7603 13.5214C17.131 14.1507 16.7775 15.0042 16.7775 15.8941H5.5925C5.5925 15.0042 5.23898 14.1507 4.6097 13.5214C3.98042 12.8921 3.12693 12.5386 2.237 12.5386V5.82762C3.12693 5.82762 3.98042 5.4741 4.6097 4.84482C5.23898 4.21554 5.5925 3.36206 5.5925 2.47212H16.7775C16.7775 3.36206 17.131 4.21554 17.7603 4.84482C18.3896 5.4741 19.2431 5.82762 20.133 5.82762V12.5386Z" fill="white"/>
<path d="M11.185 4.70912C8.71759 4.70912 6.711 6.71571 6.711 9.18312C6.711 11.6505 8.71759 13.6571 11.185 13.6571C13.6524 13.6571 15.659 11.6505 15.659 9.18312C15.659 6.71571 13.6524 4.70912 11.185 4.70912ZM11.185 11.4201C9.95129 11.4201 8.948 10.4168 8.948 9.18312C8.948 7.94942 9.95129 6.94612 11.185 6.94612C12.4187 6.94612 13.422 7.94942 13.422 9.18312C13.422 10.4168 12.4187 11.4201 11.185 11.4201Z" fill="white"/>
</svg>
