<svg width="25" height="26" viewBox="0 0 25 26" fill="none" xmlns="http://www.w3.org/2000/svg">
<path d="M18.4794 8.92918C18.805 8.54153 18.7547 7.96331 18.3671 7.63769C17.9794 7.31207 17.4012 7.36235 17.0756 7.74999L18.4794 8.92918ZM9.948 17.6604L9.26665 18.2736C9.44414 18.4708 9.69837 18.5815 9.96365 18.577C10.2289 18.5724 10.4792 18.4532 10.6499 18.25L9.948 17.6604ZM7.27385 13.3189C6.93518 12.9426 6.35558 12.9121 5.97928 13.2507C5.60298 13.5894 5.57248 14.169 5.91115 14.5453L7.27385 13.3189ZM24.2867 13C24.2867 6.31869 18.8663 0.898336 12.185 0.898336V2.73167C17.8538 2.73167 22.4533 7.33121 22.4533 13H24.2867ZM12.185 0.898336C5.50369 0.898336 0.0833333 6.31869 0.0833333 13H1.91667C1.91667 7.33121 6.51621 2.73167 12.185 2.73167V0.898336ZM0.0833333 13C0.0833333 19.6813 5.50369 25.1017 12.185 25.1017V23.2683C6.51621 23.2683 1.91667 18.6688 1.91667 13H0.0833333ZM12.185 25.1017C18.8663 25.1017 24.2867 19.6813 24.2867 13H22.4533C22.4533 18.6688 17.8538 23.2683 12.185 23.2683V25.1017ZM17.0756 7.74999L9.2461 17.0708L10.6499 18.25L18.4794 8.92918L17.0756 7.74999ZM10.6294 17.0472L7.27385 13.3189L5.91115 14.5453L9.26665 18.2736L10.6294 17.0472Z" fill="url(#paint0_linear)"/>
<defs>
<linearGradient id="paint0_linear" x1="1" y1="13" x2="23.37" y2="13" gradientUnits="userSpaceOnUse">
<stop stop-color="#00F5A0"/>
<stop offset="1" stop-color="#00D9F5"/>
</linearGradient>
</defs>
</svg>
