<svg width="23" height="23" viewBox="0 0 23 23" fill="none" xmlns="http://www.w3.org/2000/svg">
<path d="M1.11806 12.3015H2.23636V20.1297C2.23636 21.3631 3.23948 22.3663 4.47297 22.3663H17.8926C19.1261 22.3663 20.1292 21.3631 20.1292 20.1297V12.3015H21.2475C21.4686 12.3015 21.6848 12.2359 21.8687 12.113C22.0525 11.9901 22.1958 11.8155 22.2804 11.6112C22.3651 11.4068 22.3872 11.182 22.3441 10.9651C22.3009 10.7482 22.1945 10.549 22.0381 10.3926L11.9734 0.327887C11.8697 0.223946 11.7464 0.141485 11.6107 0.0852222C11.4751 0.0289596 11.3296 0 11.1828 0C11.0359 0 10.8905 0.0289596 10.7548 0.0852222C10.6191 0.141485 10.4959 0.223946 10.3921 0.327887L0.327424 10.3926C0.171075 10.549 0.0646054 10.7482 0.0214753 10.9651C-0.0216549 11.182 0.000490879 11.4068 0.0851128 11.6112C0.169735 11.8155 0.313033 11.9901 0.496893 12.113C0.680753 12.2359 0.896919 12.3015 1.11806 12.3015ZM11.1828 2.69981L17.8926 9.40961L17.8937 20.1297H4.47297V9.41073L11.1828 2.69981Z" fill="white"/>
<path d="M11.1827 16.7748C13.6497 16.7748 15.6559 14.7686 15.6559 12.3016C15.6559 9.83462 13.6497 7.82838 11.1827 7.82838C8.71577 7.82838 6.70954 9.83462 6.70954 12.3016C6.70954 14.7686 8.71577 16.7748 11.1827 16.7748ZM11.1827 10.065C12.4162 10.065 13.4193 11.0681 13.4193 12.3016C13.4193 13.5351 12.4162 14.5382 11.1827 14.5382C9.94925 14.5382 8.94614 13.5351 8.94614 12.3016C8.94614 11.0681 9.94925 10.065 11.1827 10.065Z" fill="white"/>
</svg>
