<svg width="23" height="23" viewBox="0 0 23 23" fill="none" xmlns="http://www.w3.org/2000/svg">
<path d="M11.185 0C5.01759 0 0 5.01759 0 11.185C0 17.3524 5.01759 22.37 11.185 22.37C17.3524 22.37 22.37 17.3524 22.37 11.185C22.37 5.01759 17.3524 0 11.185 0ZM11.185 20.133C6.2513 20.133 2.237 16.1187 2.237 11.185C2.237 6.2513 6.2513 2.237 11.185 2.237C16.1187 2.237 20.133 6.2513 20.133 11.185C20.133 16.1187 16.1187 20.133 11.185 20.133Z" fill="white"/>
<path d="M11.185 10.0665C8.948 10.0665 8.948 9.36632 8.948 8.948C8.948 8.40665 9.73207 7.8295 11.185 7.8295C12.5104 7.8295 12.7352 8.5431 12.7509 8.96813L13.8694 8.948H14.9879C14.9879 7.80042 14.243 6.18642 12.3035 5.72784V4.48742H10.0665V5.68757C7.86194 6.0578 6.711 7.50737 6.711 8.948C6.711 10.2007 7.29262 12.3035 11.185 12.3035C13.422 12.3035 13.422 13.0596 13.422 13.422C13.422 13.8862 12.7285 14.5405 11.185 14.5405C9.12584 14.5405 8.9603 13.5819 8.948 13.422H6.711C6.711 14.4488 7.45033 16.2775 10.0665 16.688V17.896H12.3035V16.6824C14.5081 16.3122 15.659 14.8626 15.659 13.422C15.659 12.1693 15.0774 10.0665 11.185 10.0665Z" fill="white"/>
</svg>
