<svg width="48" height="48" viewBox="0 0 48 48" fill="none" xmlns="http://www.w3.org/2000/svg">
<path d="M24 0C10.7664 0 0 10.7664 0 24C0 37.2336 10.7664 48 24 48C37.2336 48 48 37.2336 48 24C48 10.7664 37.2336 0 24 0ZM24 43.2C13.4136 43.2 4.8 34.5864 4.8 24C4.8 13.4136 13.4136 4.8 24 4.8C34.5864 4.8 43.2 13.4136 43.2 24C43.2 34.5864 34.5864 43.2 24 43.2Z" fill="#190219"/>
<path d="M24 21.6C19.2 21.6 19.2 20.0976 19.2 19.2C19.2 18.0384 20.8824 16.8 24 16.8C26.844 16.8 27.3264 18.3312 27.36 19.2432L29.76 19.2H32.16C32.16 16.7376 30.5616 13.2744 26.4 12.2904V9.6288H21.6V12.204C16.8696 12.9984 14.4 16.1088 14.4 19.2C14.4 21.888 15.648 26.4 24 26.4C28.8 26.4 28.8 28.0224 28.8 28.8C28.8 29.796 27.312 31.2 24 31.2C19.5816 31.2 19.2264 29.1432 19.2 28.8H14.4C14.4 31.0032 15.9864 34.9272 21.6 35.808V38.4H26.4V35.796C31.1304 35.0016 33.6 31.8912 33.6 28.8C33.6 26.112 32.352 21.6 24 21.6Z" fill="#190219"/>
</svg>
