<svg width="24" height="18" viewBox="0 0 24 18" fill="none" xmlns="http://www.w3.org/2000/svg">
<path d="M0.783081 2.00939C0.783081 1.23723 1.40904 0.611267 2.18121 0.611267H21.755C22.5271 0.611267 23.1531 1.23723 23.1531 2.00939C23.1531 2.78156 22.5271 3.40752 21.755 3.40752H11.9681H2.18121C1.40904 3.40752 0.783081 2.78156 0.783081 2.00939ZM6.37558 9.00002C6.37558 8.22785 7.00154 7.60189 7.77371 7.60189H21.755C22.5271 7.60189 23.1531 8.22785 23.1531 9.00002C23.1531 9.77218 22.5271 10.3981 21.755 10.3981H7.7737C7.00154 10.3981 6.37558 9.77218 6.37558 9.00002ZM13.3662 15.9906C13.3662 15.2185 13.9922 14.5925 14.7643 14.5925H21.755C22.5271 14.5925 23.1531 15.2185 23.1531 15.9906C23.1531 16.7628 22.5271 17.3888 21.755 17.3888H14.7643C13.9922 17.3888 13.3662 16.7628 13.3662 15.9906Z" fill="white"/>
</svg>
