<svg width="23" height="23" viewBox="0 0 23 23" fill="none" xmlns="http://www.w3.org/2000/svg">
<path d="M11.1851 4.474C10.0185 4.47548 8.9002 4.93954 8.07533 5.76442C7.25046 6.58929 6.78639 7.70763 6.78491 8.87418H9.02191C9.02191 7.68074 9.99277 6.711 11.1851 6.711C12.3774 6.711 13.3483 7.68074 13.3483 8.87418C13.3483 9.54304 12.8103 10.0285 11.9882 10.6929C11.7196 10.9032 11.4617 11.1269 11.2153 11.3628C10.099 12.478 10.0666 13.6625 10.0666 13.7945V14.5405H12.3036L12.3025 13.8325C12.3036 13.8146 12.3394 13.4008 12.7957 12.9455C12.9635 12.7777 13.1749 12.61 13.3941 12.4332C14.2654 11.7275 15.5842 10.6615 15.5842 8.87418C15.5833 7.70765 15.1195 6.58913 14.2948 5.76416C13.47 4.93919 12.3516 4.47519 11.1851 4.474ZM10.0666 15.659H12.3036V17.896H10.0666V15.659Z" fill="white"/>
<path d="M11.185 0C5.01759 0 0 5.01759 0 11.185C0 17.3524 5.01759 22.37 11.185 22.37C17.3524 22.37 22.37 17.3524 22.37 11.185C22.37 5.01759 17.3524 0 11.185 0ZM11.185 20.133C6.2513 20.133 2.237 16.1187 2.237 11.185C2.237 6.2513 6.2513 2.237 11.185 2.237C16.1187 2.237 20.133 6.2513 20.133 11.185C20.133 16.1187 16.1187 20.133 11.185 20.133Z" fill="white"/>
</svg>
