<svg width="23" height="21" viewBox="0 0 23 21" fill="none" xmlns="http://www.w3.org/2000/svg">
<path d="M12.185 5.59209C11.6327 5.59209 11.185 6.0398 11.185 6.59209V10.1846C11.185 10.7369 11.6327 11.1846 12.185 11.1846H15.7775C16.3298 11.1846 16.7775 10.7369 16.7775 10.1846V9.94758C16.7775 9.3953 16.3298 8.94758 15.7775 8.94758H14.422C13.8697 8.94758 13.422 8.49987 13.422 7.94758V6.59209C13.422 6.0398 12.9743 5.59209 12.422 5.59209H12.185Z" fill="white"/>
<path d="M21.5781 6.14798C21.0735 4.95124 20.3411 3.86402 19.4216 2.94684C18.0297 1.55494 16.2604 0.60146 14.3324 0.204278C12.9943 -0.0680928 11.6149 -0.0680928 10.2768 0.204278C8.34699 0.598923 6.57618 1.55318 5.18536 2.94796C4.26807 3.86612 3.53595 4.95215 3.0289 6.14686C2.50444 7.38684 2.23512 8.71976 2.237 10.0661L2.23812 10.094H2.00755C1.18212 10.094 0.712117 11.0376 1.20936 11.6965L2.55731 13.4825C2.9574 14.0126 3.75359 14.0126 4.15369 13.4825L5.50163 11.6965C5.99888 11.0376 5.52887 10.094 4.70344 10.094H4.47511L4.474 10.0661C4.47078 8.50619 4.93645 6.98134 5.8106 5.6894C6.37446 4.85576 7.09235 4.13749 7.92568 3.5732C8.77344 3.00209 9.72436 2.60167 10.7253 2.3943C12.7593 1.97609 14.8762 2.3827 16.6105 3.52473C18.3448 4.66677 19.5547 6.45075 19.9742 8.48453C20.1851 9.52684 20.1851 10.6009 19.9742 11.6432C19.7695 12.6449 19.3689 13.5964 18.7953 14.4428C18.5156 14.8577 18.1946 15.2481 17.8401 15.6015C17.1255 16.3152 16.2807 16.8851 15.3514 17.2804C14.8781 17.4805 14.3862 17.6333 13.8828 17.7367C12.8409 17.9476 11.7672 17.9476 10.7253 17.7367C9.72456 17.5316 8.77403 17.1314 7.92792 16.559C7.78803 16.4644 7.65127 16.3655 7.51785 16.2623C7.08117 15.9246 6.45173 15.919 6.06139 16.3093L5.8931 16.4776C5.50277 16.8679 5.49967 17.5051 5.92659 17.8551C6.68798 18.4792 7.53838 18.9892 8.45126 19.3674C9.67252 19.8733 10.9816 20.1334 12.3035 20.1326C13.6491 20.132 14.9811 19.8632 16.2216 19.3418C18.0197 18.581 19.5581 17.3143 20.6497 15.6955C21.7732 14.0333 22.3724 12.0724 22.37 10.0661C22.3728 8.72003 22.1034 7.38729 21.5781 6.14798Z" fill="white"/>
</svg>
