<svg width="23" height="43" viewBox="0 0 23 43" fill="none" xmlns="http://www.w3.org/2000/svg">
<path d="M5.66666 2H17.8889M5.66666 2C3.64162 2 2 3.76635 2 5.94525V37.5073C2 39.6862 3.64162 41.4525 5.66666 41.4525H17.8889C19.9139 41.4525 21.5555 39.6862 21.5555 37.5073V5.94525C21.5555 3.76635 19.9139 2 17.8889 2M5.66666 2H7.5C7.66207 2 7.81751 2.06928 7.93212 2.19259C8.04672 2.3159 8.11111 2.48315 8.11111 2.65754C8.11111 3.00632 8.23988 3.34082 8.46909 3.58745C8.6983 3.83407 9.00917 3.97263 9.33333 3.97263H14.2222C14.5464 3.97263 14.8572 3.83407 15.0865 3.58745C15.3157 3.34082 15.4444 3.00632 15.4444 2.65754C15.4444 2.48315 15.5088 2.3159 15.6234 2.19259C15.738 2.06928 15.8935 2 16.0555 2H17.8889" stroke="white" stroke-width="2.44444" stroke-linecap="round" stroke-linejoin="round"/>
</svg>
