<svg width="26" height="39" viewBox="0 0 26 39" fill="none" xmlns="http://www.w3.org/2000/svg">
<path d="M13 2C6.92708 2 2 7.16528 2 13.527C2 20.8471 9.33333 32.4473 12.026 36.454C12.1378 36.6231 12.2843 36.7608 12.4536 36.8556C12.6228 36.9505 12.8101 37 13 37C13.1899 37 13.3772 36.9505 13.5464 36.8556C13.7157 36.7608 13.8622 36.6231 13.974 36.454C16.6667 32.449 24 20.853 24 13.527C24 7.16528 19.0729 2 13 2Z" stroke="white" stroke-width="2.44444" stroke-linecap="round" stroke-linejoin="round"/>
<path d="M13 18.1546C15.025 18.1546 16.6667 16.3465 16.6667 14.116C16.6667 11.8855 15.025 10.0773 13 10.0773C10.975 10.0773 9.33333 11.8855 9.33333 14.116C9.33333 16.3465 10.975 18.1546 13 18.1546Z" stroke="white" stroke-width="2.44444" stroke-linecap="round" stroke-linejoin="round"/>
</svg>
