<svg width="86" height="115" viewBox="0 0 86 115" fill="none" xmlns="http://www.w3.org/2000/svg">
<path d="M43 110.272L43 78.7212C43 76.4898 43.8429 74.3498 45.3431 72.7719C46.8434 71.1941 48.8783 70.3077 51 70.3077L81 70.3077M83 66.824L83 15.6202C83 12.2731 81.7357 9.06313 79.4853 6.69638C77.2348 4.32964 74.1826 3.00001 71 3.00002L15 3.00002C11.8174 3.00002 8.76515 4.32965 6.51471 6.69639C4.26427 9.06314 2.99999 12.2731 2.99999 15.6202L3 99.7548C3 103.102 4.26428 106.312 6.51472 108.679C8.76516 111.045 11.8174 112.375 15 112.375L39.6875 112.375C41.8085 112.375 43.8426 111.489 45.3425 109.911L80.6575 72.7713C82.1571 71.1938 82.9997 69.0546 83 66.824Z" stroke="#B3B3B3" stroke-width="4.84375" stroke-linejoin="round"/>
</svg>
