<svg width="154" height="32" viewBox="0 0 154 32" fill="none" xmlns="http://www.w3.org/2000/svg">
<path d="M106.831 32H97.9784L91.3357 22.9598L92.8106 20.9542L99.1948 29.6406H102.145L94.2856 18.9458V18.9431L92.2201 16.132L94.2965 13.3045V13.3018L104.071 0H107.024L95.7741 15.3129L95.17 16.132L106.831 32Z" fill="url(#paint0_linear)"/>
<path d="M92.2174 20.1486L83.5092 32H80.5565L88.6688 20.9623H88.6715L89.2675 20.1486L90.7424 18.1403L92.2174 20.1486Z" fill="url(#paint1_linear)"/>
<path d="M101.122 0L92.8215 11.2935L91.3466 9.28786L98.1689 0H101.122Z" fill="url(#paint2_linear)"/>
<path d="M92.2174 12.1153L87.7925 18.1403L87.1938 18.9513V18.954L77.6066 32H74.654L89.2675 12.1153L82.0995 2.35938H79.1469L87.2238 13.3535L85.7488 15.3618L74.4608 0H83.3159L92.2174 12.1153Z" fill="url(#paint3_linear)"/>
<path d="M9.79947 8.72727C12.323 8.72727 14.4221 9.41123 16.0966 10.7791C17.7947 12.1471 18.856 14.0103 19.2806 16.3687H14.0094C13.7971 15.331 13.3136 14.5173 12.5589 13.9277C11.8042 13.3145 10.849 13.0079 9.69334 13.0079C8.37259 13.0079 7.26411 13.5032 6.36789 14.4937C5.49525 15.4607 5.05893 16.8876 5.05893 18.7744C5.05893 20.6612 5.49525 22.0998 6.36789 23.0904C7.26411 24.0574 8.37259 24.5409 9.69334 24.5409C10.849 24.5409 11.8042 24.2461 12.5589 23.6564C13.3136 23.0432 13.7971 22.2178 14.0094 21.18H19.2806C18.856 23.5385 17.7947 25.4017 16.0966 26.7696C14.4221 28.1375 12.323 28.8215 9.79947 28.8215C7.88911 28.8215 6.191 28.4206 4.70516 27.6187C3.21932 26.7932 2.06367 25.6258 1.2382 24.1163C0.412734 22.6069 0 20.8263 0 18.7744C0 16.7225 0.412734 14.9419 1.2382 13.4324C2.06367 11.8994 3.21932 10.732 4.70516 9.9301C6.191 9.12821 7.88911 8.72727 9.79947 8.72727Z" fill="url(#paint4_linear)"/>
<path d="M31.8815 8.72727C33.7918 8.72727 35.5017 9.12821 37.0111 9.9301C38.5442 10.732 39.747 11.8994 40.6196 13.4324C41.4922 14.9419 41.9286 16.7225 41.9286 18.7744C41.9286 20.8263 41.4922 22.6069 40.6196 24.1163C39.747 25.6258 38.5442 26.7932 37.0111 27.6187C35.5017 28.4206 33.7918 28.8215 31.8815 28.8215C29.9711 28.8215 28.2494 28.4206 26.7164 27.6187C25.207 26.7932 24.0159 25.6258 23.1433 24.1163C22.2707 22.6069 21.8343 20.8263 21.8343 18.7744C21.8343 16.7225 22.2707 14.9419 23.1433 13.4324C24.0159 11.8994 25.207 10.732 26.7164 9.9301C28.2494 9.12821 29.9711 8.72727 31.8815 8.72727ZM31.8815 13.0433C30.49 13.0433 29.3107 13.5386 28.3437 14.5291C27.3768 15.4961 26.8933 16.9112 26.8933 18.7744C26.8933 20.6376 27.3768 22.0645 28.3437 23.055C29.3107 24.022 30.49 24.5055 31.8815 24.5055C33.273 24.5055 34.4522 24.022 35.4192 23.055C36.3861 22.0645 36.8696 20.6376 36.8696 18.7744C36.8696 16.9112 36.3861 15.4961 35.4192 14.5291C34.4522 13.5386 33.273 13.0433 31.8815 13.0433Z" fill="url(#paint5_linear)"/>
<path d="M44.8878 3.34994C44.8878 2.54806 45.1708 1.89948 45.7369 1.4042C46.3029 0.885335 47.0458 0.625903 47.9656 0.625903C48.8854 0.625903 49.6283 0.885335 50.1944 1.4042C50.7604 1.89948 51.0434 2.54806 51.0434 3.34994C51.0434 4.12824 50.7604 4.77682 50.1944 5.29569C49.6283 5.79097 48.8854 6.03861 47.9656 6.03861C47.0458 6.03861 46.3029 5.79097 45.7369 5.29569C45.1708 4.77682 44.8878 4.12824 44.8878 3.34994ZM50.442 8.97491V28.5739H45.4538V8.97491H50.442Z" fill="url(#paint6_linear)"/>
<path d="M66.629 8.69189C68.8931 8.69189 70.6974 9.43481 72.0417 10.9207C73.386 12.4065 74.0582 14.4937 74.0582 17.1824V28.5739H69.1054V17.7484C69.1054 16.1919 68.7045 14.989 67.9026 14.14C67.1007 13.2673 66.004 12.831 64.6125 12.831C63.1974 12.831 62.0653 13.2909 61.2163 14.2107C60.3672 15.1305 59.9427 16.4513 59.9427 18.173V28.5739H54.9545V8.97491H59.9427V12.9018C60.4616 11.581 61.3106 10.5551 62.4899 9.82396C63.6927 9.06925 65.0724 8.69189 66.629 8.69189Z" fill="url(#paint7_linear)"/>
<path d="M115.754 24.2932V28.5739H113.136C110.943 28.5739 109.256 28.0432 108.077 26.9819C106.922 25.9206 106.344 24.1517 106.344 21.6753V13.1848H103.62V8.97491H106.344V4.12824H111.332V8.97491H115.719V13.1848H111.332V21.7461C111.332 22.6895 111.521 23.3498 111.898 23.7272C112.275 24.1045 112.912 24.2932 113.808 24.2932H115.754Z" fill="url(#paint8_linear)"/>
<path d="M124.332 12.7249C125.063 11.4749 126.03 10.4961 127.233 9.78859C128.435 9.05746 129.78 8.69189 131.266 8.69189V14.0338H129.815C126.159 14.0338 124.332 15.7319 124.332 19.1282V28.5739H119.343V8.97491H124.332V12.7249Z" fill="url(#paint9_linear)"/>
<path d="M141.703 8.72727C143.354 8.72727 144.769 9.11642 145.948 9.89472C147.128 10.673 147.965 11.7225 148.46 13.0433V8.97491H153.413V28.5739H148.46V24.4701C147.965 25.7909 147.128 26.8522 145.948 27.6541C144.769 28.4324 143.354 28.8215 141.703 28.8215C140.052 28.8215 138.566 28.4206 137.246 27.6187C135.925 26.8168 134.887 25.6611 134.132 24.1517C133.401 22.6187 133.036 20.8263 133.036 18.7744C133.036 16.7225 133.401 14.9419 134.132 13.4324C134.887 11.8994 135.925 10.732 137.246 9.9301C138.566 9.12821 140.052 8.72727 141.703 8.72727ZM143.26 13.0787C141.703 13.0787 140.453 13.5857 139.51 14.5999C138.566 15.614 138.095 17.0055 138.095 18.7744C138.095 20.5432 138.566 21.9347 139.51 22.9489C140.453 23.9395 141.703 24.4347 143.26 24.4347C144.769 24.4347 146.007 23.9277 146.974 22.9135C147.965 21.8758 148.46 20.4961 148.46 18.7744C148.46 17.0291 147.965 15.6494 146.974 14.6353C146.007 13.5975 144.769 13.0787 143.26 13.0787Z" fill="url(#paint10_linear)"/>
<defs>
<linearGradient id="paint0_linear" x1="0" y1="16" x2="153.413" y2="16" gradientUnits="userSpaceOnUse">
<stop stop-color="#00F5A0"/>
<stop offset="1" stop-color="#00D9F5"/>
</linearGradient>
<linearGradient id="paint1_linear" x1="0" y1="16" x2="153.413" y2="16" gradientUnits="userSpaceOnUse">
<stop stop-color="#00F5A0"/>
<stop offset="1" stop-color="#00D9F5"/>
</linearGradient>
<linearGradient id="paint2_linear" x1="0" y1="16" x2="153.413" y2="16" gradientUnits="userSpaceOnUse">
<stop stop-color="#00F5A0"/>
<stop offset="1" stop-color="#00D9F5"/>
</linearGradient>
<linearGradient id="paint3_linear" x1="0" y1="16" x2="153.413" y2="16" gradientUnits="userSpaceOnUse">
<stop stop-color="#00F5A0"/>
<stop offset="1" stop-color="#00D9F5"/>
</linearGradient>
<linearGradient id="paint4_linear" x1="0" y1="16" x2="153.413" y2="16" gradientUnits="userSpaceOnUse">
<stop stop-color="#00F5A0"/>
<stop offset="1" stop-color="#00D9F5"/>
</linearGradient>
<linearGradient id="paint5_linear" x1="0" y1="16" x2="153.413" y2="16" gradientUnits="userSpaceOnUse">
<stop stop-color="#00F5A0"/>
<stop offset="1" stop-color="#00D9F5"/>
</linearGradient>
<linearGradient id="paint6_linear" x1="0" y1="16" x2="153.413" y2="16" gradientUnits="userSpaceOnUse">
<stop stop-color="#00F5A0"/>
<stop offset="1" stop-color="#00D9F5"/>
</linearGradient>
<linearGradient id="paint7_linear" x1="0" y1="16" x2="153.413" y2="16" gradientUnits="userSpaceOnUse">
<stop stop-color="#00F5A0"/>
<stop offset="1" stop-color="#00D9F5"/>
</linearGradient>
<linearGradient id="paint8_linear" x1="0" y1="16" x2="153.413" y2="16" gradientUnits="userSpaceOnUse">
<stop stop-color="#00F5A0"/>
<stop offset="1" stop-color="#00D9F5"/>
</linearGradient>
<linearGradient id="paint9_linear" x1="0" y1="16" x2="153.413" y2="16" gradientUnits="userSpaceOnUse">
<stop stop-color="#00F5A0"/>
<stop offset="1" stop-color="#00D9F5"/>
</linearGradient>
<linearGradient id="paint10_linear" x1="0" y1="16" x2="153.413" y2="16" gradientUnits="userSpaceOnUse">
<stop stop-color="#00F5A0"/>
<stop offset="1" stop-color="#00D9F5"/>
</linearGradient>
</defs>
</svg>
