<svg width="23" height="21" viewBox="0 0 23 21" fill="none" xmlns="http://www.w3.org/2000/svg">
<path d="M0.976086 9.40408C0.475679 9.80441 0.475679 10.5655 0.976086 10.9658L3.96726 13.3588C4.62202 13.8826 5.59195 13.4164 5.59195 12.5779V11.3033H14.6575C15.2097 11.3033 15.6575 10.8556 15.6575 10.3033V10.0666C15.6575 9.51428 15.2097 9.06656 14.6575 9.06656H5.59195V7.79202C5.59195 6.95351 4.62202 6.48734 3.96726 7.01115L0.976086 9.40408Z" fill="white"/>
<path d="M12.3034 0.118386C10.9809 0.114719 9.67085 0.373502 8.44911 0.879745C7.53502 1.25851 6.68396 1.77016 5.92284 2.39667C5.49734 2.74691 5.50121 3.38286 5.8909 3.77255L6.06023 3.94188C6.45075 4.3324 7.08045 4.32639 7.51682 3.98788C8.88134 2.92937 10.5482 2.35517 12.3034 2.35517C14.3948 2.35517 16.3609 3.17047 17.8394 4.64898C19.3179 6.1275 20.1332 8.09363 20.1332 10.185C20.1332 12.2764 19.3179 14.2425 17.8394 15.7211C16.3609 17.1996 14.3948 18.0149 12.3034 18.0149C10.5482 18.0149 8.88134 17.4407 7.51682 16.3822C7.08045 16.0436 6.45075 16.0376 6.06023 16.4282L5.89283 16.5956C5.50239 16.986 5.49937 17.6234 5.92588 17.9741C7.71958 19.449 9.94937 20.2516 12.3034 20.2516C14.9931 20.2516 17.5207 19.2037 19.4208 17.3025C21.3221 15.4023 22.37 12.8747 22.37 10.185C22.37 7.49529 21.3221 4.96773 19.4208 3.06758C18.4885 2.12963 17.3794 1.38599 16.1576 0.879745C14.9359 0.373502 13.6258 0.114719 12.3034 0.118386Z" fill="white"/>
</svg>
