<svg width="48" height="30" viewBox="0 0 48 30" fill="none" xmlns="http://www.w3.org/2000/svg">
<path d="M22.6011 27.021C22.716 27.1192 22.8404 27.2173 22.9625 27.313C20.5368 28.9232 17.6893 29.7808 14.7778 29.778C12.8371 29.7795 10.9152 29.3985 9.12185 28.6567C7.32852 27.9149 5.69901 26.8269 4.32651 25.4548C2.95401 24.0828 1.86545 22.4536 1.12307 20.6605C0.380688 18.8675 -0.0009425 16.9456 1.74794e-06 15.0049C-0.000250717 12.332 0.724435 9.70914 2.09689 7.41552C3.46934 5.12191 5.43816 3.24347 7.7937 1.98024C10.1492 0.717014 12.8033 0.116301 15.4732 0.242073C18.1431 0.367845 20.7289 1.21539 22.9553 2.69446C22.8356 2.79736 22.716 2.8907 22.625 2.996C20.9 4.48554 19.5159 6.3291 18.5669 8.4013C17.618 10.4735 17.1264 12.7258 17.1255 15.0049C17.1255 19.6118 19.119 23.9913 22.6011 27.021ZM33.0377 0.229493C30.1288 0.223835 27.2836 1.08172 24.8627 2.69446C24.9799 2.79736 25.0996 2.8907 25.1905 2.996C28.6893 6.01857 30.6924 10.4005 30.6924 15.0049C30.6924 19.6094 28.6941 23.9865 25.2168 27.021C25.0996 27.1192 24.9751 27.2173 24.8555 27.313C27.2791 28.9238 30.1252 29.7814 33.0353 29.778C34.9913 29.803 36.9328 29.4394 38.7472 28.7083C40.5616 27.9771 42.2127 26.8929 43.6048 25.5187C44.9969 24.1444 46.1023 22.5074 46.8568 20.7026C47.6112 18.8978 47.9998 16.9611 48 15.0049C48.0002 13.0488 47.6119 11.1121 46.8577 9.30713C46.1035 7.50221 44.9984 5.865 43.6065 4.49051C42.2147 3.11601 40.5637 2.03158 38.7494 1.30012C36.9352 0.568671 34.9937 0.204757 33.0377 0.229493ZM23.9078 3.39805C22.1483 4.77762 20.7262 6.53979 19.7493 8.55087C18.7723 10.562 18.2663 12.7691 18.2695 15.0049C18.2648 17.242 18.7702 19.4507 19.7472 21.4632C20.7242 23.4756 22.1471 25.2389 23.9078 26.619C25.6679 25.2383 27.0906 23.475 28.068 21.4627C29.0453 19.4504 29.5516 17.242 29.5485 15.0049C29.5517 12.7689 29.0455 10.5615 28.0681 8.5503C27.0907 6.53915 25.6679 4.77714 23.9078 3.39805Z" fill="#190219"/>
<path d="M6.27344 16.5583L8.42578 12.2887H10.0781L8.87109 17.9997H7.77734L8.34375 15.2966C8.48177 14.6533 8.61849 14.0791 8.75391 13.5739H8.73438L6.51172 17.9997H5.41406L5.17578 13.5739H5.16016C5.13151 13.8031 5.08203 14.1039 5.01172 14.4762C4.94141 14.8486 4.69792 16.0231 4.28125 17.9997H3.20703L4.41406 12.2887H5.99219L6.25781 16.5583H6.27344ZM11.625 18.0778C11.2422 18.0778 10.9401 17.9398 10.7188 17.6637C10.5 17.3851 10.3906 16.9958 10.3906 16.4958C10.3906 15.9802 10.4844 15.4893 10.6719 15.0231C10.8594 14.5544 11.1055 14.1924 11.4102 13.9372C11.7148 13.6794 12.0495 13.5505 12.4141 13.5505C12.6667 13.5505 12.8841 13.6052 13.0664 13.7145C13.2513 13.8239 13.3945 13.9828 13.4961 14.1911H13.5273L13.75 13.6325H14.6562L13.7266 17.9997H12.832L12.8867 17.4333H12.8711C12.5221 17.863 12.1068 18.0778 11.625 18.0778ZM12.0859 17.1286C12.2656 17.1286 12.4388 17.0414 12.6055 16.8669C12.7721 16.6924 12.9062 16.4567 13.0078 16.1598C13.1094 15.8604 13.1602 15.5218 13.1602 15.1442C13.1602 14.9593 13.1094 14.807 13.0078 14.6872C12.9089 14.5648 12.7773 14.5036 12.6133 14.5036C12.4362 14.5036 12.2669 14.5973 12.1055 14.7848C11.9466 14.9723 11.819 15.2197 11.7227 15.527C11.6289 15.8343 11.582 16.139 11.582 16.4411C11.582 16.6703 11.625 16.8421 11.7109 16.9567C11.7995 17.0713 11.9245 17.1286 12.0859 17.1286ZM18.0352 16.5583C18.0352 17.0479 17.8724 17.4242 17.5469 17.6872C17.224 17.9476 16.7734 18.0778 16.1953 18.0778C15.9167 18.0778 15.6732 18.0583 15.4648 18.0192C15.2591 17.9802 15.0664 17.9151 14.8867 17.8239V16.8552C15.2956 17.0895 15.7109 17.2067 16.1328 17.2067C16.3411 17.2067 16.5117 17.1651 16.6445 17.0817C16.7773 16.9958 16.8438 16.8799 16.8438 16.7341C16.8438 16.6221 16.7956 16.5218 16.6992 16.4333C16.6029 16.3447 16.4323 16.2328 16.1875 16.0973C15.8724 15.9203 15.6523 15.7445 15.5273 15.57C15.4023 15.3929 15.3398 15.1846 15.3398 14.945C15.3398 14.5023 15.4831 14.1598 15.7695 13.9177C16.0586 13.6729 16.4701 13.5505 17.0039 13.5505C17.5273 13.5505 18 13.6742 18.4219 13.9216L18.0352 14.7614C17.6706 14.5427 17.3346 14.4333 17.0273 14.4333C16.8789 14.4333 16.7591 14.4671 16.668 14.5348C16.5768 14.5999 16.5312 14.6885 16.5312 14.8005C16.5312 14.902 16.5729 14.9919 16.6562 15.07C16.7396 15.1455 16.8958 15.2419 17.125 15.3591C17.4453 15.5231 17.6771 15.7015 17.8203 15.8942C17.9635 16.0869 18.0352 16.3083 18.0352 16.5583ZM20.5938 17.1286C20.763 17.1286 20.974 17.083 21.2266 16.9919V17.8708C20.9375 18.0088 20.5911 18.0778 20.1875 18.0778C19.7969 18.0778 19.5091 17.9958 19.3242 17.8317C19.1419 17.6677 19.0508 17.4137 19.0508 17.07C19.0508 16.9398 19.0664 16.794 19.0977 16.6325L19.5469 14.527H18.9531L19.0664 13.9528L19.832 13.6247L20.3477 12.7028H21.1055L20.9141 13.6325H22.0195L21.8242 14.527H20.7227L20.2734 16.6325C20.2578 16.7106 20.25 16.7796 20.25 16.8395C20.25 17.0322 20.3646 17.1286 20.5938 17.1286ZM24.5859 14.3981C24.3568 14.3981 24.1406 14.5023 23.9375 14.7106C23.7344 14.919 23.6016 15.1729 23.5391 15.4723H23.7148C24.1185 15.4723 24.4323 15.4098 24.6562 15.2848C24.8828 15.1572 24.9961 14.9854 24.9961 14.7692C24.9961 14.5218 24.8594 14.3981 24.5859 14.3981ZM23.9453 18.0778C23.3984 18.0778 22.974 17.9307 22.6719 17.6364C22.3698 17.3421 22.2188 16.9268 22.2188 16.3903C22.2188 15.8512 22.3255 15.3604 22.5391 14.9177C22.7552 14.4723 23.0469 14.1338 23.4141 13.902C23.7812 13.6677 24.1966 13.5505 24.6602 13.5505C25.1211 13.5505 25.4805 13.6572 25.7383 13.8708C25.9961 14.0817 26.125 14.3721 26.125 14.7419C26.125 15.2289 25.9076 15.6052 25.4727 15.8708C25.0378 16.1338 24.4167 16.2653 23.6094 16.2653H23.4102L23.4023 16.3473V16.4255C23.4023 16.6624 23.4688 16.8499 23.6016 16.988C23.737 17.1234 23.9297 17.1911 24.1797 17.1911C24.4062 17.1911 24.612 17.1664 24.7969 17.1169C24.9818 17.0674 25.2057 16.9802 25.4688 16.8552V17.7419C25.0208 17.9658 24.513 18.0778 23.9453 18.0778ZM29.6172 13.5505C29.7708 13.5505 29.8958 13.5648 29.9922 13.5934L29.7344 14.7262C29.6172 14.6846 29.487 14.6637 29.3438 14.6637C29.0417 14.6637 28.776 14.7835 28.5469 15.0231C28.3203 15.2601 28.1589 15.6012 28.0625 16.0466L27.6484 17.9997H26.4727L27.3984 13.6325H28.2969L28.2148 14.4411H28.2383C28.6211 13.8473 29.0807 13.5505 29.6172 13.5505ZM31.6719 18.0778C31.1484 18.0778 30.7461 17.9385 30.4648 17.6598C30.1862 17.3786 30.0469 16.9828 30.0469 16.4723C30.0469 15.9203 30.1432 15.419 30.3359 14.9684C30.5312 14.5153 30.8047 14.1664 31.1562 13.9216C31.5078 13.6742 31.9089 13.5505 32.3594 13.5505C32.8333 13.5505 33.2604 13.6442 33.6406 13.8317L33.2812 14.7262C33.1406 14.6664 33.0026 14.6143 32.8672 14.57C32.7318 14.5257 32.5781 14.5036 32.4062 14.5036C32.1849 14.5036 31.9844 14.5869 31.8047 14.7536C31.6276 14.9203 31.4883 15.1494 31.3867 15.4411C31.2878 15.7302 31.2383 16.0414 31.2383 16.3747C31.2383 16.6247 31.2969 16.8135 31.4141 16.9411C31.5339 17.0661 31.6992 17.1286 31.9102 17.1286C32.1081 17.1286 32.2917 17.0986 32.4609 17.0387C32.6302 16.9762 32.8047 16.8994 32.9844 16.8083V17.7692C32.5885 17.9749 32.151 18.0778 31.6719 18.0778ZM35.1484 18.0778C34.7656 18.0778 34.4635 17.9398 34.2422 17.6637C34.0234 17.3851 33.9141 16.9958 33.9141 16.4958C33.9141 15.9802 34.0078 15.4893 34.1953 15.0231C34.3828 14.5544 34.6289 14.1924 34.9336 13.9372C35.2383 13.6794 35.5729 13.5505 35.9375 13.5505C36.1901 13.5505 36.4076 13.6052 36.5898 13.7145C36.7747 13.8239 36.918 13.9828 37.0195 14.1911H37.0508L37.2734 13.6325H38.1797L37.25 17.9997H36.3555L36.4102 17.4333H36.3945C36.0456 17.863 35.6302 18.0778 35.1484 18.0778ZM35.6094 17.1286C35.7891 17.1286 35.9622 17.0414 36.1289 16.8669C36.2956 16.6924 36.4297 16.4567 36.5312 16.1598C36.6328 15.8604 36.6836 15.5218 36.6836 15.1442C36.6836 14.9593 36.6328 14.807 36.5312 14.6872C36.4323 14.5648 36.3008 14.5036 36.1367 14.5036C35.9596 14.5036 35.7904 14.5973 35.6289 14.7848C35.4701 14.9723 35.3424 15.2197 35.2461 15.527C35.1523 15.8343 35.1055 16.139 35.1055 16.4411C35.1055 16.6703 35.1484 16.8421 35.2344 16.9567C35.3229 17.0713 35.4479 17.1286 35.6094 17.1286ZM41.6094 13.5505C41.763 13.5505 41.888 13.5648 41.9844 13.5934L41.7266 14.7262C41.6094 14.6846 41.4792 14.6637 41.3359 14.6637C41.0339 14.6637 40.7682 14.7835 40.5391 15.0231C40.3125 15.2601 40.151 15.6012 40.0547 16.0466L39.6406 17.9997H38.4648L39.3906 13.6325H40.2891L40.207 14.4411H40.2305C40.6133 13.8473 41.0729 13.5505 41.6094 13.5505ZM43.2734 18.0778C42.8906 18.0778 42.5885 17.9385 42.3672 17.6598C42.1484 17.3812 42.0391 16.9906 42.0391 16.488C42.0391 15.9776 42.1315 15.4906 42.3164 15.027C42.5039 14.5609 42.75 14.1989 43.0547 13.9411C43.3594 13.6807 43.6953 13.5505 44.0625 13.5505C44.276 13.5505 44.4596 13.5986 44.6133 13.695C44.7695 13.7914 44.9167 13.9567 45.0547 14.1911H45.0859L45.0938 14.0817C45.1094 13.7953 45.1419 13.5414 45.1914 13.32L45.4883 11.9216H46.6641L45.375 17.9997H44.4805L44.5352 17.4333H44.5195C44.3346 17.6598 44.1406 17.8239 43.9375 17.9255C43.737 18.027 43.5156 18.0778 43.2734 18.0778ZM43.7656 17.1286C43.9375 17.1286 44.1042 17.0401 44.2656 16.863C44.4297 16.6833 44.5612 16.445 44.6602 16.1481C44.7591 15.8512 44.8086 15.5322 44.8086 15.1911C44.8086 14.9828 44.7591 14.8161 44.6602 14.6911C44.5638 14.5661 44.431 14.5036 44.2617 14.5036C44.0846 14.5036 43.9154 14.5973 43.7539 14.7848C43.5951 14.9723 43.4674 15.2197 43.3711 15.527C43.2773 15.8343 43.2305 16.139 43.2305 16.4411C43.2305 16.8994 43.4089 17.1286 43.7656 17.1286Z" fill="white"/>
</svg>
