<svg width="35" height="56" viewBox="0 0 35 56" fill="none" xmlns="http://www.w3.org/2000/svg">
<path d="M5.6 30.8431V43.1803H0V49.349H8.4V55.5176H14V49.349H19.6V55.5176H25.2V49.1917C30.7104 48.4237 35 43.2852 35 37.0117C35 32.9404 33.18 29.3503 30.408 27.1018C32.4524 24.8072 33.5984 21.721 33.6 18.5059C33.6 12.7752 30.0188 7.98528 25.2 6.60659V0H19.6V6.16862H14V0H8.4V6.16862H0V12.3372H5.6V30.8431ZM23.8 43.1803H11.2V30.8431H23.8C26.8884 30.8431 29.4 33.6097 29.4 37.0117C29.4 40.4137 26.8884 43.1803 23.8 43.1803ZM11.2 12.3372H22.4C25.4884 12.3372 28 15.1039 28 18.5059C28 21.9079 25.4884 24.6745 22.4 24.6745H11.2V12.3372Z" fill="black"/>
</svg>
