<svg width="23" height="26" viewBox="0 0 23 26" fill="none" xmlns="http://www.w3.org/2000/svg">
<path d="M20.444 15.1175C20.3502 15.0237 20.2975 14.8965 20.2975 14.7639V10.5144C20.2975 6.51641 17.5821 3.14848 13.9034 2.13562C13.5393 1.21845 12.6495 0.572205 11.5981 0.572205C10.5467 0.572205 9.65687 1.21845 9.29273 2.13562C5.61411 3.14973 2.89864 6.51641 2.89864 10.5144V14.7639C2.89864 14.8965 2.84596 15.0237 2.7522 15.1175L0.777221 17.0924C0.66159 17.2077 0.569888 17.3446 0.507395 17.4954C0.444901 17.6462 0.41285 17.8079 0.413087 17.9711V20.4566C0.413087 20.7863 0.544022 21.1024 0.777088 21.3354C1.01015 21.5685 1.32626 21.6994 1.65586 21.6994H21.5403C21.8699 21.6994 22.186 21.5685 22.4191 21.3354C22.6522 21.1024 22.7831 20.7863 22.7831 20.4566V17.9711C22.7833 17.8079 22.7513 17.6462 22.6888 17.4954C22.6263 17.3446 22.5346 17.2077 22.419 17.0924L20.444 15.1175ZM20.2975 19.2139H2.89864V18.4856L5.02006 16.3642C5.13569 16.249 5.2274 16.112 5.28989 15.9612C5.35238 15.8104 5.38443 15.6488 5.3842 15.4855V10.5144C5.3842 7.08809 8.17175 4.30054 11.5981 4.30054C15.0244 4.30054 17.812 7.08809 17.812 10.5144V15.4855C17.812 15.8161 17.9425 16.1318 18.1761 16.3642L20.2975 18.4856V19.2139ZM11.5981 25.4278C12.3677 25.4287 13.1186 25.1899 13.7462 24.7444C14.3739 24.299 14.8471 23.669 15.1002 22.9422H8.09594C8.34905 23.669 8.82231 24.299 9.44996 24.7444C10.0776 25.1899 10.8284 25.4287 11.5981 25.4278Z" fill="white"/>
</svg>
