<svg width="23" height="25" viewBox="0 0 23 25" fill="none" xmlns="http://www.w3.org/2000/svg">
<path d="M22.3318 6.07308C22.3112 5.86482 22.2381 5.6652 22.1193 5.49289C22.0006 5.32059 21.84 5.18124 21.6527 5.08789L11.7389 0.131006C11.5668 0.0448543 11.3769 0 11.1844 0C10.9919 0 10.802 0.0448543 10.6298 0.131006L0.716049 5.08789C0.529266 5.18177 0.369207 5.32129 0.25071 5.49351C0.132214 5.66573 0.059117 5.86508 0.0381948 6.07308C0.0245634 6.20567 -1.1527 19.4158 10.6819 24.6788C10.84 24.7501 11.0115 24.787 11.185 24.787C11.3585 24.787 11.53 24.7501 11.6881 24.6788C23.5227 19.4158 22.3454 6.20691 22.3318 6.07308ZM11.185 22.1792C2.7967 18.1245 2.40015 9.47102 2.46831 6.98391L11.185 2.62556L19.8955 6.98143C19.9413 9.44624 19.489 18.1567 11.185 22.1792Z" fill="white"/>
<path d="M9.94578 13.1193L7.10424 10.2778L5.35198 12.03L9.94578 16.6238L17.018 9.55157L15.2658 7.79931L9.94578 13.1193Z" fill="white"/>
</svg>
