<svg width="23" height="22" viewBox="0 0 23 22" fill="none" xmlns="http://www.w3.org/2000/svg">
<path d="M6.11354 13.3386C4.35729 13.3386 2.8867 14.5169 2.40429 16.1175H0V18.3406H2.40429C2.8867 19.9413 4.35729 21.1195 6.11354 21.1195C7.86979 21.1195 9.34038 19.9413 9.82279 18.3406H22.2311V16.1175H9.82279C9.34038 14.5169 7.86979 13.3386 6.11354 13.3386ZM6.11354 18.8964C5.19429 18.8964 4.44621 18.1483 4.44621 17.2291C4.44621 16.3098 5.19429 15.5617 6.11354 15.5617C7.03279 15.5617 7.78087 16.3098 7.78087 17.2291C7.78087 18.1483 7.03279 18.8964 6.11354 18.8964ZM16.1175 6.66932C14.3613 6.66932 12.8907 7.84756 12.4083 9.4482H0V11.6713H12.4083C12.8907 13.2719 14.3613 14.4502 16.1175 14.4502C17.8738 14.4502 19.3444 13.2719 19.8268 11.6713H22.2311V9.4482H19.8268C19.3444 7.84756 17.8738 6.66932 16.1175 6.66932ZM16.1175 12.2271C15.1983 12.2271 14.4502 11.479 14.4502 10.5598C14.4502 9.6405 15.1983 8.89242 16.1175 8.89242C17.0368 8.89242 17.7848 9.6405 17.7848 10.5598C17.7848 11.479 17.0368 12.2271 16.1175 12.2271Z" fill="white"/>
<path d="M12.0459 2.77888C11.5635 1.17825 10.0929 0 8.33665 0C6.58039 0 5.10981 1.17825 4.62739 2.77888H0V5.00199H4.62739C5.10981 6.60262 6.58039 7.78087 8.33665 7.78087C10.0929 7.78087 11.5635 6.60262 12.0459 5.00199H22.37V2.77888H12.0459ZM8.33665 5.55776C7.41739 5.55776 6.66932 4.80969 6.66932 3.89043C6.66932 2.97118 7.41739 2.22311 8.33665 2.22311C9.2559 2.22311 10.004 2.97118 10.004 3.89043C10.004 4.80969 9.2559 5.55776 8.33665 5.55776Z" fill="white"/>
</svg>
