<svg width="23" height="25" viewBox="0 0 23 25" fill="none" xmlns="http://www.w3.org/2000/svg">
<path d="M21.9073 16.1434L20.9173 14.3607L18.7888 15.5443L19.7775 17.3233C19.836 17.4269 19.8774 17.534 19.9042 17.6448C19.9489 17.8461 19.943 18.0553 19.8871 18.2537C19.8575 18.3542 19.815 18.4504 19.7605 18.5398C19.6577 18.7158 19.5124 18.8632 19.3379 18.9685C19.1491 19.0806 18.9329 19.1384 18.7133 19.1353H13.1106V16.6999L8.23983 20.353L13.1106 24.0061V21.5707H18.7133C19.0518 21.5707 19.3854 21.5256 19.7008 21.438C20.31 21.2699 20.8641 20.9439 21.307 20.493C21.5237 20.2751 21.7112 20.0303 21.8622 19.7709C22.3428 18.9588 22.4894 17.9918 22.2714 17.0737C22.1909 16.7491 22.0685 16.4364 21.9073 16.1434ZM3.20099 10.6589L0.3881 16.2847C0.242442 16.5759 0.135591 16.885 0.0702798 17.204C-0.0487075 17.8015 -0.0162168 18.4193 0.164788 19.001C0.345794 19.5828 0.669554 20.1099 1.10654 20.5344C1.32329 20.7463 1.5644 20.9314 1.83107 21.086C2.387 21.4036 3.01616 21.5707 3.6564 21.5707H5.80443V19.1353H3.6564C3.44321 19.1359 3.23348 19.0813 3.04756 18.977C2.86997 18.8748 2.72188 18.7284 2.61771 18.552C2.51079 18.3801 2.44843 18.1842 2.43627 17.9821C2.4304 17.8821 2.43776 17.7818 2.45819 17.6838C2.48011 17.5779 2.51664 17.4731 2.56656 17.3721L5.31369 11.8778L7.2608 13.0017L6.53261 6.95829L0.933629 9.34985L3.20099 10.6589ZM18.7096 13.003L19.4378 6.95829L17.4432 8.10902L13.9813 1.87805C13.7396 1.43487 13.4073 1.04759 13.0059 0.741475C12.6045 0.435356 12.1431 0.217267 11.6518 0.101427C11.3437 0.0300244 11.028 -0.00391082 10.7118 0.000357844C10.0679 0.012429 9.43865 0.194316 8.88764 0.527622C8.29948 0.884614 7.82548 1.40213 7.52138 2.0193L6.63003 3.80202L8.80849 4.89186L9.69985 3.10793C9.75465 2.99833 9.82283 2.8997 9.90199 2.81324C10.0471 2.65486 10.2341 2.54086 10.4414 2.48447C10.6519 2.42504 10.8741 2.42043 11.0868 2.47107C11.2494 2.50922 11.4019 2.58165 11.5342 2.6835C11.6665 2.78535 11.7755 2.91427 11.854 3.06165L15.3341 9.32794L13.1106 10.6114L18.7096 13.003Z" fill="white"/>
</svg>
