<svg width="23" height="23" viewBox="0 0 23 23" fill="none" xmlns="http://www.w3.org/2000/svg">
<path d="M11.185 0C5.12161 0 0 5.12161 0 11.185C0 14.7519 1.78065 17.9832 4.474 20.048V20.133H4.58809C6.45375 21.5255 8.73884 22.37 11.185 22.37C13.6312 22.37 15.9163 21.5255 17.7819 20.133H17.896V20.048C20.5893 17.9832 22.37 14.753 22.37 11.185C22.37 5.12161 17.2484 0 11.185 0ZM6.79377 18.9328C6.9586 18.1873 7.37264 17.5201 7.9676 17.0414C8.56256 16.5628 9.3029 16.3012 10.0665 16.2999H12.3035C13.067 16.3014 13.8073 16.5631 14.4022 17.0417C14.9971 17.5203 15.4112 18.1873 15.5762 18.9328C14.2698 19.6901 12.7688 20.133 11.185 20.133C9.6012 20.133 8.10018 19.6901 6.79377 18.9328ZM17.4598 17.4945C17.0331 16.4787 16.3164 15.6114 15.3992 15.001C14.482 14.3906 13.4052 14.0643 12.3035 14.0629H10.0665C8.96479 14.0643 7.88796 14.3906 6.97079 15.001C6.05362 15.6114 5.33686 16.4787 4.91021 17.4945C3.26938 15.8626 2.237 13.6189 2.237 11.185C2.237 6.33407 6.33407 2.237 11.185 2.237C16.0359 2.237 20.133 6.33407 20.133 11.185C20.133 13.6189 19.1006 15.8626 17.4598 17.4945Z" fill="white"/>
<path d="M11.185 4.474C8.63482 4.474 6.711 6.39782 6.711 8.948C6.711 11.4982 8.63482 13.422 11.185 13.422C13.7352 13.422 15.659 11.4982 15.659 8.948C15.659 6.39782 13.7352 4.474 11.185 4.474ZM11.185 11.185C9.86741 11.185 8.948 10.2656 8.948 8.948C8.948 7.63041 9.86741 6.711 11.185 6.711C12.5026 6.711 13.422 7.63041 13.422 8.948C13.422 10.2656 12.5026 11.185 11.185 11.185Z" fill="white"/>
</svg>
