<svg width="48" height="48" viewBox="0 0 48 48" fill="none" xmlns="http://www.w3.org/2000/svg">
<path d="M24 0C10.9896 0 0 10.9896 0 24C0 31.6536 3.8208 38.5872 9.6 43.0176V43.2H9.8448C13.848 46.188 18.7512 48 24 48C29.2488 48 34.152 46.188 38.1552 43.2H38.4V43.0176C44.1792 38.5872 48 31.656 48 24C48 10.9896 37.0104 0 24 0ZM14.5776 40.6248C14.9313 39.0249 15.8197 37.5934 17.0963 36.5664C18.3729 35.5393 19.9615 34.9781 21.6 34.9752H26.4C28.0384 34.9785 29.6267 35.5399 30.9033 36.5669C32.1798 37.5939 33.0683 39.0252 33.4224 40.6248C30.6192 42.2496 27.3984 43.2 24 43.2C20.6016 43.2 17.3808 42.2496 14.5776 40.6248ZM37.464 37.5384C36.5485 35.3589 35.0106 33.4978 33.0426 32.1881C31.0746 30.8783 28.764 30.1782 26.4 30.1752H21.6C19.236 30.1782 16.9254 30.8783 14.9574 32.1881C12.9894 33.4978 11.4515 35.3589 10.536 37.5384C7.0152 34.0368 4.8 29.2224 4.8 24C4.8 13.5912 13.5912 4.8 24 4.8C34.4088 4.8 43.2 13.5912 43.2 24C43.2 29.2224 40.9848 34.0368 37.464 37.5384Z" fill="#190219"/>
<path d="M24 9.6C18.528 9.6 14.4 13.728 14.4 19.2C14.4 24.672 18.528 28.8 24 28.8C29.472 28.8 33.6 24.672 33.6 19.2C33.6 13.728 29.472 9.6 24 9.6ZM24 24C21.1728 24 19.2 22.0272 19.2 19.2C19.2 16.3728 21.1728 14.4 24 14.4C26.8272 14.4 28.8 16.3728 28.8 19.2C28.8 22.0272 26.8272 24 24 24Z" fill="#190219"/>
</svg>
