<svg width="48" height="16" viewBox="0 0 48 16" fill="none" xmlns="http://www.w3.org/2000/svg">
<path d="M34.8932 1.24997C33.7777 0.843499 32.5985 0.639527 31.4113 0.647665C27.5719 0.647665 24.8603 2.58177 24.8411 5.35816C24.8171 7.39785 26.768 8.54728 28.2438 9.22878C29.7579 9.92947 30.2643 10.371 30.2595 10.9973C30.2499 11.95 29.05 12.3819 27.9342 12.3819C26.4008 12.3819 25.5634 12.1683 24.2748 11.6332L23.7972 11.4101L23.2525 14.6064C24.186 14.9951 25.8681 15.3287 27.6055 15.3575C31.6872 15.3575 34.3556 13.4353 34.3868 10.4814C34.4204 8.85203 33.3646 7.62102 31.1425 6.60357C29.7915 5.94367 28.9541 5.50214 28.9541 4.83264C28.9541 4.23992 29.6715 3.60642 31.1713 3.60642C32.1695 3.58227 33.1614 3.76954 34.0821 4.15594L34.442 4.31671L34.9868 1.22838L34.8932 1.24997ZM44.8565 0.906825H41.8569C40.9235 0.906825 40.2204 1.16359 39.8124 2.08985L34.0437 15.1583H38.1255L38.9414 13.0154L43.923 13.0202C44.0406 13.5217 44.4005 15.1583 44.4005 15.1583H48L44.8565 0.906825ZM19.3195 0.786843H23.2093L20.7761 15.0455H16.8911L19.3195 0.782044V0.786843ZM9.44498 8.64566L9.84812 10.6254L13.6492 0.906825H17.7693L11.6479 15.1391H7.53727L4.17777 3.0881C4.12336 2.88939 3.99558 2.71873 3.82023 2.61057C2.60937 1.98507 1.32639 1.5104 0 1.19718L0.052792 0.897225H6.31345C7.16293 0.93082 7.84682 1.19718 8.07479 2.10424L9.44258 8.65286V8.64566H9.44498ZM40.0572 10.0998L41.6074 6.11164C41.5882 6.15484 41.9265 5.28857 42.1233 4.75345L42.3896 5.98446L43.2895 10.0974H40.0548V10.0998H40.0572Z" fill="#190219"/>
</svg>
