<svg width="48" height="48" viewBox="0 0 48 48" fill="none" xmlns="http://www.w3.org/2000/svg">
<path d="M40.8 12H38.4V0H9.6V12H7.2C3.2304 12 0 15.2304 0 19.2V36C0 38.6472 2.1528 40.8 4.8 40.8H9.6V48H38.4V40.8H43.2C45.8472 40.8 48 38.6472 48 36V19.2C48 15.2304 44.7696 12 40.8 12ZM14.4 4.8H33.6V12H14.4V4.8ZM33.6 43.2H14.4V33.6H33.6V43.2ZM43.2 36H38.4V28.8H9.6V36H4.8V19.2C4.8 17.8776 5.8776 16.8 7.2 16.8H40.8C42.1248 16.8 43.2 17.8776 43.2 19.2V36Z" fill="#190219"/>
<path d="M28.8 19.2H38.4V24H28.8V19.2Z" fill="#190219"/>
</svg>
