<svg width="23" height="23" viewBox="0 0 23 23" fill="none" xmlns="http://www.w3.org/2000/svg">
<path d="M19.0145 5.5925H17.896V0H4.474V5.5925H3.3555C1.5055 5.5925 0 7.098 0 8.948V16.7775C0 18.0112 1.00329 19.0145 2.237 19.0145H4.474V22.37H17.896V19.0145H20.133C21.3667 19.0145 22.37 18.0112 22.37 16.7775V8.948C22.37 7.098 20.8645 5.5925 19.0145 5.5925ZM6.711 2.237H15.659V5.5925H6.711V2.237ZM15.659 20.133H6.711V15.659H15.659V20.133ZM20.133 16.7775H17.896V13.422H4.474V16.7775H2.237V8.948C2.237 8.33171 2.73921 7.8295 3.3555 7.8295H19.0145C19.6319 7.8295 20.133 8.33171 20.133 8.948V16.7775Z" fill="white"/>
<path d="M13.422 8.948H17.896V11.185H13.422V8.948Z" fill="white"/>
</svg>
